<svg xmlns="http://www.w3.org/2000/svg" version="1.1" xmlns:xlink="http://www.w3.org/1999/xlink" xmlns:svgjs="http://svgjs.com/svgjs" width="500" height="1000" preserveAspectRatio="none" viewBox="0 0 500 1000"><g mask="url(&quot;#SvgjsMask1011&quot;)" fill="none"><rect width="500" height="1000" x="0" y="0" fill="#0e2a47"></rect><path d="M131.58 1161.67C215.75 950.09 130 409.69 274.23 262.09 418.45 114.49 345.55 387.09 416.87 387.09 488.2 387.09 512.86 270.5 559.52 262.09" stroke="rgba(51,121,194,0.58)" stroke-width="2"></path><path d="M139.82 1081.66C212.61 968.76 78.9 731.43 271.7 560.78 464.5 390.13 424.02 189.79 535.47 130.78" stroke="rgba(51,121,194,0.58)" stroke-width="2"></path><path d="M167.1 1009.53C281.77 833.15 211.05 261.8 375.18 194.14 539.31 126.48 507.29 411.02 583.26 434.14" stroke="rgba(51,121,194,0.58)" stroke-width="2"></path><path d="M77.35 1013.46C196.5 858.21 170.49 273.43 300.55 263.17 430.61 252.91 418.94 662.37 523.75 743.17" stroke="rgba(51,121,194,0.58)" stroke-width="2"></path><path d="M218.5 1120.89C319.36 924.51 243.68 339.74 394.81 255.59 545.93 171.44 498.51 490.54 571.11 525.59" stroke="rgba(51,121,194,0.58)" stroke-width="2"></path></g><defs><mask id="SvgjsMask1011"><rect width="500" height="1000" fill="#ffffff"></rect></mask></defs></svg>